# WaveFront *.obj file (generated by Autodesk ATF)

mtllib LightPolePole.mtl

g Solid1

v -0.075000 0.000000 0.000000
v -0.075000 1.000000 0.000000
v -0.072978 0.000000 -0.017296
v -0.072978 0.000000 0.017296
v -0.072978 1.000000 -0.017296
v -0.072978 1.000000 0.017296
v -0.067022 0.000000 -0.033660
v -0.067022 0.000000 0.033660
v -0.067022 1.000000 -0.033660
v -0.067022 1.000000 0.033660
v -0.057453 0.000000 -0.048209
v -0.057453 0.000000 0.048209
v -0.057453 1.000000 -0.048209
v -0.057453 1.000000 0.048209
v -0.044787 0.000000 -0.060159
v -0.044787 0.000000 0.060159
v -0.044787 1.000000 -0.060159
v -0.044787 1.000000 0.060159
v -0.029706 0.000000 -0.068866
v -0.029706 0.000000 0.068866
v -0.029706 1.000000 -0.068866
v -0.029706 1.000000 0.068866
v -0.013024 0.000000 -0.073861
v -0.013024 0.000000 0.073861
v -0.013024 1.000000 -0.073861
v -0.013024 1.000000 0.073861
v 0.004361 0.000000 -0.074873
v 0.004361 0.000000 0.074873
v 0.004361 1.000000 -0.074873
v 0.004361 1.000000 0.074873
v 0.021510 0.000000 -0.071849
v 0.021510 0.000000 0.071849
v 0.021510 1.000000 -0.071849
v 0.021510 1.000000 0.071849
v 0.037500 0.000000 -0.064952
v 0.037500 0.000000 0.064952
v 0.037500 1.000000 -0.064952
v 0.037500 1.000000 0.064952
v 0.051468 0.000000 -0.054553
v 0.051468 0.000000 0.054553
v 0.051468 1.000000 -0.054553
v 0.051468 1.000000 0.054553
v 0.062662 0.000000 -0.041213
v 0.062662 0.000000 0.041213
v 0.062662 1.000000 -0.041213
v 0.062662 1.000000 0.041213
v 0.070477 0.000000 -0.025652
v 0.070477 0.000000 0.025652
v 0.070477 1.000000 -0.025652
v 0.070477 1.000000 0.025652
v 0.074493 0.000000 -0.008707
v 0.074493 0.000000 0.008707
v 0.074493 1.000000 -0.008707
v 0.074493 1.000000 0.008707
vt -2.540000 0.598473 0.000000
vt -2.540000 0.554142 0.000000
vt -2.540000 0.509811 0.000000
vt -2.540000 0.465479 0.000000
vt -2.540000 0.421148 0.000000
vt -2.540000 0.376817 0.000000
vt -2.540000 0.332485 0.000000
vt -2.540000 0.288154 0.000000
vt -2.540000 0.243823 0.000000
vt -2.540000 0.199491 0.000000
vt -2.540000 0.155160 0.000000
vt -2.540000 0.110828 0.000000
vt -2.540000 0.066497 0.000000
vt -2.540000 0.022166 0.000000
vt -2.540000 -0.022166 0.000000
vt -2.540000 -0.066497 0.000000
vt -2.540000 -0.110828 0.000000
vt -2.540000 -0.155160 0.000000
vt -2.540000 -0.199491 0.000000
vt -2.540000 -0.243823 0.000000
vt -2.540000 -0.288154 0.000000
vt -2.540000 -0.332485 0.000000
vt -2.540000 -0.376817 0.000000
vt -2.540000 -0.421148 0.000000
vt -2.540000 -0.465479 0.000000
vt -2.540000 -0.509811 0.000000
vt -2.540000 -0.554142 0.000000
vt -0.000000 -0.598473 0.000000
vt -0.000000 -0.554142 0.000000
vt -0.000000 -0.509811 0.000000
vt -0.000000 -0.465479 0.000000
vt -0.000000 -0.421148 0.000000
vt -0.000000 -0.376817 0.000000
vt -0.000000 -0.332485 0.000000
vt -0.000000 -0.288154 0.000000
vt -0.000000 -0.243823 0.000000
vt -0.000000 -0.199491 0.000000
vt -0.000000 -0.155160 0.000000
vt -0.000000 -0.110828 0.000000
vt -0.000000 -0.066497 0.000000
vt -0.000000 -0.022166 0.000000
vt -0.000000 0.022166 0.000000
vt -0.000000 0.066497 0.000000
vt -0.000000 0.110828 0.000000
vt -0.000000 0.155160 0.000000
vt -0.000000 0.199491 0.000000
vt -0.000000 0.243823 0.000000
vt -0.000000 0.288154 0.000000
vt -0.000000 0.332485 0.000000
vt -0.000000 0.376817 0.000000
vt -0.000000 0.421148 0.000000
vt -0.000000 0.465479 0.000000
vt -0.000000 0.509811 0.000000
vt -0.000000 0.554142 0.000000
vt -0.000000 0.598473 0.000000
vt -2.540000 -0.598473 0.000000
vt -0.000000 -0.190500 0.000000
vt 0.043932 -0.185365 0.000000
vt 0.085496 -0.170237 0.000000
vt 0.122451 -0.145931 0.000000
vt 0.152804 -0.113759 0.000000
vt 0.174920 -0.075453 0.000000
vt 0.187606 -0.033080 0.000000
vt 0.190178 0.011077 0.000000
vt 0.182497 0.054636 0.000000
vt 0.164978 0.095250 0.000000
vt 0.138565 0.130729 0.000000
vt 0.104681 0.159160 0.000000
vt 0.065155 0.179011 0.000000
vt 0.022116 0.189212 0.000000
vt -0.022116 0.189212 0.000000
vt -0.065155 0.179011 0.000000
vt -0.104681 0.159160 0.000000
vt -0.138565 0.130729 0.000000
vt -0.164978 0.095250 0.000000
vt -0.182497 0.054636 0.000000
vt -0.190178 0.011077 0.000000
vt -0.187606 -0.033080 0.000000
vt -0.174920 -0.075453 0.000000
vt -0.152804 -0.113759 0.000000
vt -0.122451 -0.145931 0.000000
vt -0.085496 -0.170237 0.000000
vt -0.043932 -0.185365 0.000000
vt 0.000000 -0.190500 0.000000
vt 0.043932 -0.185365 0.000000
vt 0.085496 -0.170237 0.000000
vt 0.122451 -0.145931 0.000000
vt 0.152804 -0.113759 0.000000
vt 0.174920 -0.075453 0.000000
vt 0.187606 -0.033080 0.000000
vt 0.190178 0.011077 0.000000
vt 0.182497 0.054636 0.000000
vt 0.164978 0.095250 0.000000
vt 0.138565 0.130729 0.000000
vt 0.104681 0.159160 0.000000
vt 0.065155 0.179011 0.000000
vt 0.022116 0.189212 0.000000
vt -0.022116 0.189212 0.000000
vt -0.065155 0.179011 0.000000
vt -0.104681 0.159160 0.000000
vt -0.138565 0.130729 0.000000
vt -0.164978 0.095250 0.000000
vt -0.182497 0.054636 0.000000
vt -0.190178 0.011077 0.000000
vt -0.187606 -0.033080 0.000000
vt -0.174920 -0.075453 0.000000
vt -0.152804 -0.113759 0.000000
vt -0.122451 -0.145931 0.000000
vt -0.085496 -0.170237 0.000000
vt -0.043932 -0.185365 0.000000
vn -2.540000 0.000000 0.000000
vn -2.471534 0.000000 -0.585764
vn -2.269827 0.000000 -1.139950
vn -1.945753 0.000000 -1.632681
vn -1.516783 0.000000 -2.037393
vn -1.006043 0.000000 -2.332269
vn -0.441066 0.000000 -2.501412
vn 0.147688 0.000000 -2.535703
vn 0.728480 0.000000 -2.433293
vn 1.270000 0.000000 -2.199704
vn 1.743054 0.000000 -1.847529
vn 2.122139 0.000000 -1.395753
vn 2.386819 0.000000 -0.868731
vn 2.522825 0.000000 -0.294876
vn 2.522825 0.000000 0.294876
vn 2.386819 0.000000 0.868731
vn 2.122139 0.000000 1.395753
vn 1.743054 0.000000 1.847529
vn 1.270000 0.000000 2.199704
vn 0.728480 0.000000 2.433293
vn 0.147688 0.000000 2.535703
vn -0.441066 0.000000 2.501412
vn -1.006043 0.000000 2.332269
vn -1.516783 0.000000 2.037393
vn -1.945753 0.000000 1.632681
vn -2.269827 0.000000 1.139950
vn -2.471534 0.000000 0.585764
vn -2.540000 0.000000 0.000000
vn -2.471534 0.000000 0.585764
vn -2.269827 0.000000 1.139950
vn -1.945753 0.000000 1.632681
vn -1.516783 0.000000 2.037393
vn -1.006043 0.000000 2.332269
vn -0.441066 0.000000 2.501412
vn 0.147688 0.000000 2.535703
vn 0.728480 0.000000 2.433293
vn 1.270000 0.000000 2.199704
vn 1.743054 0.000000 1.847529
vn 2.122139 0.000000 1.395753
vn 2.386819 0.000000 0.868731
vn 2.522825 0.000000 0.294876
vn 2.522825 0.000000 -0.294876
vn 2.386819 0.000000 -0.868731
vn 2.122139 0.000000 -1.395753
vn 1.743054 0.000000 -1.847529
vn 1.270000 0.000000 -2.199704
vn 0.728480 0.000000 -2.433293
vn 0.147688 0.000000 -2.535703
vn -0.441066 0.000000 -2.501412
vn -1.006043 0.000000 -2.332269
vn -1.516783 0.000000 -2.037393
vn -1.945753 0.000000 -1.632681
vn -2.269827 0.000000 -1.139950
vn -2.471534 0.000000 -0.585764
vn -2.540000 0.000000 0.000000
vn -2.540000 0.000000 0.000000
vn 0.000000 -2.540000 0.000000
vn 0.000000 -2.540000 0.000000
vn 0.000000 -2.540000 0.000000
vn 0.000000 -2.540000 0.000000
vn 0.000000 -2.540000 0.000000
vn 0.000000 -2.540000 0.000000
vn 0.000000 -2.540000 0.000000
vn 0.000000 -2.540000 0.000000
vn 0.000000 -2.540000 0.000000
vn 0.000000 -2.540000 0.000000
vn 0.000000 -2.540000 0.000000
vn 0.000000 -2.540000 0.000000
vn 0.000000 -2.540000 0.000000
vn 0.000000 -2.540000 0.000000
vn 0.000000 -2.540000 0.000000
vn 0.000000 -2.540000 0.000000
vn 0.000000 -2.540000 0.000000
vn 0.000000 -2.540000 0.000000
vn 0.000000 -2.540000 0.000000
vn 0.000000 -2.540000 0.000000
vn 0.000000 -2.540000 0.000000
vn 0.000000 -2.540000 0.000000
vn 0.000000 -2.540000 0.000000
vn 0.000000 -2.540000 0.000000
vn 0.000000 -2.540000 0.000000
vn 0.000000 -2.540000 0.000000
vn 0.000000 -2.540000 0.000000
vn 0.000000 2.540000 0.000000
vn 0.000000 2.540000 0.000000
vn 0.000000 2.540000 0.000000
vn 0.000000 2.540000 0.000000
vn 0.000000 2.540000 0.000000
vn 0.000000 2.540000 0.000000
vn 0.000000 2.540000 0.000000
vn 0.000000 2.540000 0.000000
vn 0.000000 2.540000 0.000000
vn 0.000000 2.540000 0.000000
vn 0.000000 2.540000 0.000000
vn 0.000000 2.540000 0.000000
vn 0.000000 2.540000 0.000000
vn 0.000000 2.540000 0.000000
vn 0.000000 2.540000 0.000000
vn 0.000000 2.540000 0.000000
vn 0.000000 2.540000 0.000000
vn 0.000000 2.540000 0.000000
vn 0.000000 2.540000 0.000000
vn 0.000000 2.540000 0.000000
vn 0.000000 2.540000 0.000000
vn 0.000000 2.540000 0.000000
vn 0.000000 2.540000 0.000000
vn 0.000000 2.540000 0.000000
vn 0.000000 2.540000 0.000000
vn 0.000000 2.540000 0.000000
vn 0.000000 2.540000 0.000000
usemtl 191,191,191
f 5/2/2 3/54/54 2/1/1
f 2/1/1 3/54/54 1/55/55
f 2/56/56 1/28/28 6/27/27
f 6/27/27 1/28/28 4/29/29
f 6/27/27 4/29/29 10/26/26
f 10/26/26 4/29/29 8/30/30
f 10/26/26 8/30/30 14/25/25
f 14/25/25 8/30/30 12/31/31
f 14/25/25 12/31/31 18/24/24
f 18/24/24 12/31/31 16/32/32
f 18/24/24 16/32/32 22/23/23
f 22/23/23 16/32/32 20/33/33
f 22/23/23 20/33/33 26/22/22
f 26/22/22 20/33/33 24/34/34
f 26/22/22 24/34/34 30/21/21
f 30/21/21 24/34/34 28/35/35
f 30/21/21 28/35/35 34/20/20
f 34/20/20 28/35/35 32/36/36
f 34/20/20 32/36/36 38/19/19
f 38/19/19 32/36/36 36/37/37
f 38/19/19 36/37/37 42/18/18
f 42/18/18 36/37/37 40/38/38
f 42/18/18 40/38/38 46/17/17
f 46/17/17 40/38/38 44/39/39
f 46/17/17 44/39/39 50/16/16
f 50/16/16 44/39/39 48/40/40
f 50/16/16 48/40/40 54/15/15
f 54/15/15 48/40/40 52/41/41
f 54/15/15 52/41/41 53/14/14
f 53/14/14 52/41/41 51/42/42
f 53/14/14 51/42/42 49/13/13
f 49/13/13 51/42/42 47/43/43
f 49/13/13 47/43/43 45/12/12
f 45/12/12 47/43/43 43/44/44
f 45/12/12 43/44/44 41/11/11
f 41/11/11 43/44/44 39/45/45
f 41/11/11 39/45/45 37/10/10
f 37/10/10 39/45/45 35/46/46
f 37/10/10 35/46/46 33/9/9
f 33/9/9 35/46/46 31/47/47
f 33/9/9 31/47/47 29/8/8
f 29/8/8 31/47/47 27/48/48
f 29/8/8 27/48/48 25/7/7
f 25/7/7 27/48/48 23/49/49
f 25/7/7 23/49/49 21/6/6
f 21/6/6 23/49/49 19/50/50
f 21/6/6 19/50/50 17/5/5
f 17/5/5 19/50/50 15/51/51
f 17/5/5 15/51/51 13/4/4
f 13/4/4 15/51/51 11/52/52
f 13/4/4 11/52/52 9/3/3
f 9/3/3 11/52/52 7/53/53
f 9/3/3 7/53/53 5/2/2
f 5/2/2 7/53/53 3/54/54
f 1/57/57 3/58/58 4/83/83
f 4/83/83 3/58/58 8/82/82
f 8/82/82 3/58/58 7/59/59
f 8/82/82 7/59/59 12/81/81
f 12/81/81 7/59/59 16/80/80
f 16/80/80 7/59/59 20/79/79
f 20/79/79 7/59/59 24/78/78
f 24/78/78 7/59/59 28/77/77
f 28/77/77 7/59/59 32/76/76
f 32/76/76 7/59/59 36/75/75
f 36/75/75 7/59/59 40/74/74
f 40/74/74 7/59/59 44/73/73
f 44/73/73 7/59/59 48/72/72
f 48/72/72 7/59/59 52/71/71
f 52/71/71 7/59/59 51/70/70
f 51/70/70 7/59/59 47/69/69
f 47/69/69 7/59/59 43/68/68
f 43/68/68 7/59/59 11/60/60
f 43/68/68 11/60/60 39/67/67
f 39/67/67 11/60/60 15/61/61
f 39/67/67 15/61/61 35/66/66
f 35/66/66 15/61/61 19/62/62
f 35/66/66 19/62/62 31/65/65
f 31/65/65 19/62/62 23/63/63
f 31/65/65 23/63/63 27/64/64
f 2/84/84 6/85/85 5/110/110
f 5/110/110 6/85/85 9/109/109
f 9/109/109 6/85/85 10/86/86
f 9/109/109 10/86/86 13/108/108
f 13/108/108 10/86/86 17/107/107
f 17/107/107 10/86/86 21/106/106
f 21/106/106 10/86/86 25/105/105
f 25/105/105 10/86/86 29/104/104
f 29/104/104 10/86/86 33/103/103
f 33/103/103 10/86/86 37/102/102
f 37/102/102 10/86/86 41/101/101
f 41/101/101 10/86/86 45/100/100
f 45/100/100 10/86/86 49/99/99
f 49/99/99 10/86/86 53/98/98
f 53/98/98 10/86/86 54/97/97
f 54/97/97 10/86/86 50/96/96
f 50/96/96 10/86/86 46/95/95
f 46/95/95 10/86/86 14/87/87
f 46/95/95 14/87/87 42/94/94
f 42/94/94 14/87/87 18/88/88
f 42/94/94 18/88/88 38/93/93
f 38/93/93 18/88/88 22/89/89
f 38/93/93 22/89/89 34/92/92
f 34/92/92 22/89/89 26/90/90
f 34/92/92 26/90/90 30/91/91

# 54 vertices
# 110 texture params
# 110 normals
# 104 facets

# 1 groups
