# WaveFront *.obj file (generated by Autodesk ATF)

mtllib Slab.mtl

g Solid1

v -0.500000 -0.500000 -0.500000
v -0.500000 -0.500000 0.500000
v -0.500000 0.000000 -0.500000
v -0.500000 0.000000 0.500000
v 0.500000 -0.500000 -0.500000
v 0.500000 -0.500000 0.500000
v 0.500000 0.000000 -0.500000
v 0.500000 0.000000 0.500000
vt 0.000000 0.000000 0.000000
vt 2.540000 0.000000 0.000000
vt 2.540000 1.270000 0.000000
vt 0.000000 1.270000 0.000000
vt 0.000000 0.000000 0.000000
vt 2.540000 0.000000 0.000000
vt 2.540000 1.270000 0.000000
vt 0.000000 1.270000 0.000000
vt 0.000000 0.000000 0.000000
vt 2.540000 0.000000 0.000000
vt 2.540000 1.270000 0.000000
vt 0.000000 1.270000 0.000000
vt 0.000000 0.000000 0.000000
vt 2.540000 0.000000 0.000000
vt 2.540000 1.270000 0.000000
vt 0.000000 1.270000 0.000000
vt 1.270000 -1.270000 0.000000
vt 1.270000 1.270000 0.000000
vt -1.270000 1.270000 0.000000
vt -1.270000 -1.270000 0.000000
vt -1.270000 1.270000 0.000000
vt -1.270000 -1.270000 0.000000
vt 1.270000 -1.270000 0.000000
vt 1.270000 1.270000 0.000000
vn 2.540000 0.000000 0.000000
vn 2.540000 0.000000 0.000000
vn 2.540000 0.000000 0.000000
vn 2.540000 0.000000 0.000000
vn 0.000000 0.000000 -2.540000
vn 0.000000 0.000000 -2.540000
vn 0.000000 0.000000 -2.540000
vn 0.000000 0.000000 -2.540000
vn -2.540000 0.000000 0.000000
vn -2.540000 0.000000 0.000000
vn -2.540000 0.000000 0.000000
vn -2.540000 0.000000 0.000000
vn 0.000000 0.000000 2.540000
vn 0.000000 0.000000 2.540000
vn 0.000000 0.000000 2.540000
vn 0.000000 0.000000 2.540000
vn 0.000000 2.540000 0.000000
vn 0.000000 2.540000 0.000000
vn 0.000000 2.540000 0.000000
vn 0.000000 2.540000 0.000000
vn 0.000000 -2.540000 0.000000
vn 0.000000 -2.540000 0.000000
vn 0.000000 -2.540000 0.000000
vn 0.000000 -2.540000 0.000000
usemtl 191,191,191
f 7/1/1 8/2/2 5/4/4
f 5/4/4 8/2/2 6/3/3
f 3/5/5 7/6/6 1/8/8
f 1/8/8 7/6/6 5/7/7
f 4/9/9 3/10/10 2/12/12
f 2/12/12 3/10/10 1/11/11
f 8/13/13 4/14/14 6/16/16
f 6/16/16 4/14/14 2/15/15
f 8/18/18 7/19/19 4/17/17
f 4/17/17 7/19/19 3/20/20
f 2/22/22 1/23/23 6/21/21
f 6/21/21 1/23/23 5/24/24

# 8 vertices
# 24 texture params
# 24 normals
# 12 facets

# 1 groups
