# WaveFront *.obj file (generated by Autodesk ATF)

mtllib SlabZ-.mtl

g Solid1

v -0.500000 -0.500000 -0.500000
v -0.500000 -0.500000 0.000000
v -0.500000 0.250000 -0.250000
v -0.500000 0.250000 -0.249918
v -0.500000 0.500000 -0.500000
v -0.500000 0.500000 -0.250000
v -0.500000 0.500000 -0.249918
v -0.500000 0.500000 0.000000
v 0.500000 -0.500000 -0.500000
v 0.500000 -0.500000 0.000000
v 0.500000 0.250000 -0.250000
v 0.500000 0.250000 -0.249918
v 0.500000 0.500000 -0.500000
v 0.500000 0.500000 -0.250000
v 0.500000 0.500000 -0.249918
v 0.500000 0.500000 0.000000
vt -1.905000 0.000000 0.000000
vt 0.635000 0.000000 0.000000
vt 0.635000 2.540000 0.000000
vt -1.905000 2.540000 0.000000
vt 0.000000 -1.270000 0.000000
vt 0.000000 1.270000 0.000000
vt -0.634791 1.270000 0.000000
vt -0.634791 0.635000 0.000000
vt -0.635000 0.635000 0.000000
vt -0.635000 1.270000 0.000000
vt -1.270000 1.270000 0.000000
vt -1.270000 -1.270000 0.000000
vt 2.540000 -1.270000 0.000000
vt 2.540000 1.270000 0.000000
vt 0.000000 1.270000 0.000000
vt 0.000000 -1.270000 0.000000
vt 0.000000 1.270000 0.000000
vt 0.000000 -1.270000 0.000000
vt 1.270000 -1.270000 0.000000
vt 1.270000 1.270000 0.000000
vt 0.635000 1.270000 0.000000
vt 0.635000 0.635000 0.000000
vt 0.634791 0.635000 0.000000
vt 0.634791 1.270000 0.000000
vt 1.270000 1.270000 0.000000
vt 1.270000 -1.270000 0.000000
vt 2.540000 -1.270000 0.000000
vt 2.540000 1.270000 0.000000
vt 0.635000 -1.270000 0.000000
vt 0.635000 1.270000 0.000000
vt 0.000000 1.270000 0.000000
vt 0.000000 -1.270000 0.000000
vt 0.317395 -1.270000 0.000000
vt 0.317395 1.270000 0.000000
vt -0.317395 1.270000 0.000000
vt -0.317395 -1.270000 0.000000
vt -0.635000 0.000000 0.000000
vt -0.000000 0.000000 0.000000
vt -0.000000 2.540000 0.000000
vt -0.635000 2.540000 0.000000
vt 0.000000 0.000000 0.000000
vt 2.540000 0.000000 0.000000
vt 2.540000 0.635000 0.000000
vt 0.000000 0.635000 0.000000
vt -0.000209 2.540000 0.000000
vt -0.000209 0.000000 0.000000
vt -0.000000 0.000000 0.000000
vt -0.000000 2.540000 0.000000
vn 0.000000 0.000000 2.540000
vn 0.000000 0.000000 2.540000
vn 0.000000 0.000000 2.540000
vn 0.000000 0.000000 2.540000
vn -2.540000 0.000000 0.000000
vn -2.540000 0.000000 0.000000
vn -2.540000 0.000000 0.000000
vn -2.540000 0.000000 0.000000
vn -2.540000 0.000000 0.000000
vn -2.540000 0.000000 0.000000
vn -2.540000 0.000000 0.000000
vn -2.540000 0.000000 0.000000
vn 0.000000 0.000000 -2.540000
vn 0.000000 0.000000 -2.540000
vn 0.000000 0.000000 -2.540000
vn 0.000000 0.000000 -2.540000
vn 2.540000 0.000000 0.000000
vn 2.540000 0.000000 0.000000
vn 2.540000 0.000000 0.000000
vn 2.540000 0.000000 0.000000
vn 2.540000 0.000000 0.000000
vn 2.540000 0.000000 0.000000
vn 2.540000 0.000000 0.000000
vn 2.540000 0.000000 0.000000
vn 0.000000 -2.540000 0.000000
vn 0.000000 -2.540000 0.000000
vn 0.000000 -2.540000 0.000000
vn 0.000000 -2.540000 0.000000
vn 0.000000 2.540000 0.000000
vn 0.000000 2.540000 0.000000
vn 0.000000 2.540000 0.000000
vn 0.000000 2.540000 0.000000
vn 0.000000 2.540000 0.000000
vn 0.000000 2.540000 0.000000
vn 0.000000 2.540000 0.000000
vn 0.000000 2.540000 0.000000
vn 0.000000 0.000000 2.540000
vn 0.000000 0.000000 2.540000
vn 0.000000 0.000000 2.540000
vn 0.000000 0.000000 2.540000
vn 0.000000 0.000000 -2.540000
vn 0.000000 0.000000 -2.540000
vn 0.000000 0.000000 -2.540000
vn 0.000000 0.000000 -2.540000
vn 0.000000 2.540000 0.000000
vn 0.000000 2.540000 0.000000
vn 0.000000 2.540000 0.000000
vn 0.000000 2.540000 0.000000
usemtl 191,191,191
f 10/1/1 16/2/2 2/4/4
f 2/4/4 16/2/2 8/3/3
f 8/6/6 4/8/8 2/5/5
f 2/5/5 4/8/8 3/9/9
f 2/5/5 3/9/9 1/12/12
f 1/12/12 3/9/9 5/11/11
f 5/11/11 3/9/9 6/10/10
f 8/6/6 7/7/7 4/8/8
f 13/14/14 9/15/15 5/13/13
f 5/13/13 9/15/15 1/16/16
f 15/24/24 16/17/17 12/23/23
f 12/23/23 16/17/17 10/18/18
f 12/23/23 10/18/18 11/22/22
f 11/22/22 10/18/18 9/19/19
f 11/22/22 9/19/19 13/20/20
f 13/20/20 14/21/21 11/22/22
f 2/26/26 1/27/27 10/25/25
f 10/25/25 1/27/27 9/28/28
f 14/30/30 13/31/31 6/29/29
f 6/29/29 13/31/31 5/32/32
f 16/34/34 15/35/35 8/33/33
f 8/33/33 15/35/35 7/36/36
f 11/37/37 14/38/38 3/40/40
f 3/40/40 14/38/38 6/39/39
f 12/41/41 4/42/42 15/44/44
f 15/44/44 4/42/42 7/43/43
f 12/46/46 11/47/47 4/45/45
f 4/45/45 11/47/47 3/48/48

# 16 vertices
# 48 texture params
# 48 normals
# 28 facets

# 1 groups
